<svg xmlns="http://www.w3.org/2000/svg" data-name="Layer 1" viewBox="0 0 512 512"><circle cx="256" cy="256" r="219.5" fill="#fdd402"/><path fill="#fff" d="M217,194.26035a56.5,56.5,0,1,1-56.66-56.5h.16a56.48694,56.48694,0,0,1,56.5,56.5Z"/><path fill="#74563a" d="M208.76,164.87022A27.9997,27.9997,0,1,1,160.37,137.80027l-.03-.03992h.16A56.46415,56.46415,0,0,1,208.76,164.87022Z"/><path fill="#fff" d="M408,194.26035a56.5,56.5,0,1,1-56.65-56.5h.15a56.48694,56.48694,0,0,1,56.5,56.5Z"/><path fill="#74563a" d="M399.76,164.87022A27.9997,27.9997,0,1,1,351.37,137.80027l-.02-.03992h.15A56.46415,56.46415,0,0,1,399.76,164.87022Z"/><path fill="#2c2b2d" d="M224.34766,193.30469a63.58375,63.58375,0,0,0-8.463-31.74451,7.51565,7.51565,0,0,0-2.05285-3.34485,63.95414,63.95414,0,1,0,10.51587,35.08936ZM164.2489,144.47412a48.98444,48.98444,0,0,1,35.71173,20.03809A20.4867,20.4867,0,0,1,162,153.80469,20.31982,20.31982,0,0,1,164.2489,144.47412Zm-3.90124,97.83057a49,49,0,0,1-12.46717-96.38745,35.46378,35.46378,0,0,0,59.38208,33.25952,48.98789,48.98789,0,0,1-46.91491,63.12793Zm246.537-80.74451a7.51565,7.51565,0,0,0-2.05285-3.34485,64.06868,64.06868,0,1,0,2.05285,3.34485ZM355.2489,144.47412a48.98444,48.98444,0,0,1,35.71173,20.03809A20.4867,20.4867,0,0,1,353,153.80469,20.31982,20.31982,0,0,1,355.2489,144.47412Zm-3.90124,97.83057a49,49,0,0,1-12.46717-96.38745,35.46378,35.46378,0,0,0,59.38208,33.25952,48.98789,48.98789,0,0,1-46.91491,63.12793ZM416.51318,95.48633A227.00026,227.00026,0,0,0,95.48682,416.51367,227.00026,227.00026,0,0,0,416.51318,95.48633ZM256,468C139.103,468,44,372.89746,44,256S139.103,44,256,44s212,95.10254,212,212S372.897,468,256,468Zm56.83887-133.51855a131.46671,131.46671,0,0,0-53.334-11.17676h-7a131.49039,131.49039,0,0,0-53.34375,11.17676A7.49992,7.49992,0,0,0,205.209,348.208a116.577,116.577,0,0,1,47.2959-9.90332h7A116.55328,116.55328,0,0,1,306.791,348.208a7.49992,7.49992,0,0,0,6.04785-13.72656Z"/></svg>