<?xml version="1.0" encoding="UTF-8" standalone="no"?><svg xmlns="http://www.w3.org/2000/svg" viewBox="0 0 64 64"><defs><style>.cls-1{fill:#ecf0f1;}.cls-1,.cls-2,.cls-3{stroke:#434a54;stroke-linecap:round;stroke-linejoin:round;stroke-width:2px;}.cls-2{fill:#f1c40f;}.cls-3,.cls-4{fill:none;}</style></defs><title>b_6</title><g id="katman_2" data-name="katman 2"><g id="icons"><ellipse class="cls-1" cx="11" cy="38" rx="5" ry="3" fill="#ecf0f1" stroke="#434a54" stroke-linecap="round" stroke-linejoin="round" stroke-width="2px"/><path class="cls-2" d="M16 38v6c0 1.66-2.24 3-5 3s-5-1.34-5-3v-6c0 1.66 2.24 3 5 3s5-1.34 5-3z" stroke="#434a54" stroke-linecap="round" stroke-linejoin="round" stroke-width="2px" fill="#f1c40f"/><path class="cls-2" d="M30 38v6c0 1.66-2.24 3-5 3s-5-1.34-5-3v-6c0 1.66 2.24 3 5 3s5-1.34 5-3z" stroke="#434a54" stroke-linecap="round" stroke-linejoin="round" stroke-width="2px" fill="#f1c40f"/><ellipse class="cls-1" cx="25" cy="32" rx="5" ry="3" fill="#ecf0f1" stroke="#434a54" stroke-linecap="round" stroke-linejoin="round" stroke-width="2px"/><path class="cls-2" d="M30 32v6c0 1.66-2.24 3-5 3s-5-1.34-5-3v-6c0 1.66 2.24 3 5 3s5-1.34 5-3z" stroke="#434a54" stroke-linecap="round" stroke-linejoin="round" stroke-width="2px" fill="#f1c40f"/><path class="cls-2" d="M44 38v6c0 1.66-2.24 3-5 3s-5-1.34-5-3v-6c0 1.66 2.24 3 5 3s5-1.34 5-3z" stroke="#434a54" stroke-linecap="round" stroke-linejoin="round" stroke-width="2px" fill="#f1c40f"/><path class="cls-2" d="M44 32v6c0 1.66-2.24 3-5 3s-5-1.34-5-3v-6c0 1.66 2.24 3 5 3s5-1.34 5-3z" stroke="#434a54" stroke-linecap="round" stroke-linejoin="round" stroke-width="2px" fill="#f1c40f"/><path class="cls-2" d="M44 26v6c0 1.66-2.24 3-5 3s-5-1.34-5-3v-6c0 1.66 2.24 3 5 3s5-1.34 5-3z" stroke="#434a54" stroke-linecap="round" stroke-linejoin="round" stroke-width="2px" fill="#f1c40f"/><ellipse class="cls-1" cx="39" cy="26" rx="5" ry="3" fill="#ecf0f1" stroke="#434a54" stroke-linecap="round" stroke-linejoin="round" stroke-width="2px"/><path class="cls-2" d="M58 38v6c0 1.66-2.24 3-5 3s-5-1.34-5-3v-6c0 1.66 2.24 3 5 3s5-1.34 5-3z" stroke="#434a54" stroke-linecap="round" stroke-linejoin="round" stroke-width="2px" fill="#f1c40f"/><path class="cls-2" d="M58 32v6c0 1.66-2.24 3-5 3s-5-1.34-5-3v-6c0 1.66 2.24 3 5 3s5-1.34 5-3z" stroke="#434a54" stroke-linecap="round" stroke-linejoin="round" stroke-width="2px" fill="#f1c40f"/><path class="cls-2" d="M58 26v6c0 1.66-2.24 3-5 3s-5-1.34-5-3v-6c0 1.66 2.24 3 5 3s5-1.34 5-3z" stroke="#434a54" stroke-linecap="round" stroke-linejoin="round" stroke-width="2px" fill="#f1c40f"/><path class="cls-2" d="M58 20v6c0 1.66-2.24 3-5 3s-5-1.34-5-3v-6c0 1.66 2.24 3 5 3s5-1.34 5-3z" stroke="#434a54" stroke-linecap="round" stroke-linejoin="round" stroke-width="2px" fill="#f1c40f"/><ellipse class="cls-1" cx="53" cy="20" rx="5" ry="3" fill="#ecf0f1" stroke="#434a54" stroke-linecap="round" stroke-linejoin="round" stroke-width="2px"/><path class="cls-3" stroke="#434a54" stroke-linecap="round" stroke-linejoin="round" stroke-width="2px" fill="none" d="M62 22v7"/><path class="cls-3" stroke="#434a54" stroke-linecap="round" stroke-linejoin="round" stroke-width="2px" fill="none" d="M62 35v7"/><path class="cls-3" stroke="#434a54" stroke-linecap="round" stroke-linejoin="round" stroke-width="2px" fill="none" d="M2 40v3"/><path class="cls-4" fill="none" d="M0 0h64v64H0z"/></g></g><metadata><rdf:RDF xmlns:rdf="http://www.w3.org/1999/02/22-rdf-syntax-ns#" xmlns:rdfs="http://www.w3.org/2000/01/rdf-schema#" xmlns:dc="http://purl.org/dc/elements/1.1/"><rdf:Description about="https://iconscout.com/legal#licenses" dc:title="b" dc:description="b" dc:publisher="Iconscout" dc:date="2017-09-06" dc:format="image/svg+xml" dc:language="en"><dc:creator><rdf:Bag><rdf:li>IconLIB</rdf:li></rdf:Bag></dc:creator></rdf:Description></rdf:RDF></metadata></svg>