<?xml version="1.0" encoding="UTF-8"?><svg xmlns="http://www.w3.org/2000/svg" viewBox="0 0 64 64"><path d="M29 27.171l-4.586-4.585-2.828 2.828L29 32.829l13.414-13.415-2.828-2.828z"/><path d="M54 24c0-12.148-9.849-22-22-22-12.147 0-22 9.852-22 22 0 8.421 4.736 15.735 11.688 19.433L20 62l12-8 12 8-1.688-18.566C49.265 39.736 54 32.421 54 24zM32 44c-11.046 0-20-8.954-20-20S20.954 4 32 4s20 8.954 20 20-8.954 20-20 20z"/><metadata><rdf:RDF xmlns:rdf="http://www.w3.org/1999/02/22-rdf-syntax-ns#" xmlns:rdfs="http://www.w3.org/2000/01/rdf-schema#" xmlns:dc="http://purl.org/dc/elements/1.1/"><rdf:Description about="https://iconscout.com/legal#licenses" dc:title="recommendation" dc:description="recommendation" dc:publisher="Iconscout" dc:date="2017-09-15" dc:format="image/svg+xml" dc:language="en"><dc:creator><rdf:Bag><rdf:li>IBM-Design</rdf:li></rdf:Bag></dc:creator></rdf:Description></rdf:RDF></metadata></svg>